<svg version="1.1" viewBox="0 0 640 400" xmlns="http://www.w3.org/2000/svg" xmlns:xlink="http://www.w3.org/1999/xlink" xmlns:svgjs="http://svgjs.dev/svgjs" matcher="0.4827745415299127"><g viewBox="0 0 640 400" matcher="0.4827745415299127"><g matcher="0.4827745415299127"><g matcher="0.4827745415299127"><g matcher="0.4827745415299127"><svg viewBox="0 0 640 400" data-background-color="#293040" preserveAspectRatio="xMidYMid meet" height="400" width="640" xmlns="http://www.w3.org/2000/svg" xmlns:xlink="http://www.w3.org/1999/xlink"><rect width="640" height="400" x="0" y="0" opacity="1" fill="#293040" data-fill-palette-color="background" id="background"></rect><g id="tight-bounds" transform="matrix(1,0,0,1,148.57422074112307,28.57422074112307)"><svg viewBox="0 0 342.85155851775386 342.85155851775386" height="342.85155851775386" width="342.85155851775386"><g><svg></svg></g><g><svg viewBox="0 0 342.85155851775386 342.85155851775386" height="342.85155851775386" width="342.85155851775386"><g><path d="M0 171.426c0-94.676 76.75-171.426 171.426-171.426 94.676 0 171.426 76.75 171.426 171.426 0 94.676-76.75 171.426-171.426 171.426-94.676 0-171.426-76.75-171.426-171.426zM171.426 339.254c92.689 0 167.828-75.139 167.828-167.828 0-92.689-75.139-167.828-167.828-167.828-92.689 0-167.828 75.139-167.828 167.828 0 92.689 75.139 167.828 167.828 167.828z" data-fill-palette-color="tertiary" fill="#d5b263" stroke="transparent"></path><ellipse rx="164.56874808852186" ry="164.56874808852186" cx="171.42577925887693" cy="171.42577925887693" fill="#d5b263" stroke="transparent" stroke-width="0" fill-opacity="1" data-fill-palette-color="tertiary"></ellipse></g><g transform="matrix(1,0,0,1,64.84655864529837,119.20525983766885)"><svg viewBox="0 0 213.1584412271571 104.44103884241615" height="104.44103884241615" width="213.1584412271571"><g><svg viewBox="0 0 213.1584412271571 104.44103884241615" height="104.44103884241615" width="213.1584412271571"><g transform="matrix(1,0,0,1,0,64.54875197128783)"><svg viewBox="0 0 213.1584412271571 39.89228687112832" height="39.89228687112832" width="213.1584412271571"><g id="textblocktransform"><svg viewBox="0 0 213.1584412271571 39.89228687112832" height="39.89228687112832" width="213.1584412271571" id="textblock"><g><svg viewBox="0 0 213.1584412271571 39.89228687112832" height="39.89228687112832" width="213.1584412271571"><g transform="matrix(1,0,0,1,0,0)"><svg width="213.1584412271571" viewBox="1.559999942779541 -37.5 264.79998779296875 49.560001373291016" height="39.89228687112832" data-palette-color="#293040"><path d="M12.26 11.25L12.26 11.25Q11.6 11.62 10.57 11.84 9.55 12.06 8.76 12.06L8.76 12.06Q7.52 12.06 6.71 11.5 5.91 10.94 5.91 9.59L5.91 9.59 5.91-22.56 1.56-22.56 1.56-24.39Q2.25-24.71 3.63-24.93 5-25.15 6.6-25.27 8.2-25.39 9.47-25.39L9.47-25.39Q10.47-25.39 11.02-25.23 11.57-25.07 11.57-24.1L11.57-24.1 11.57-22.95Q13.01-24 15.33-24.88 17.65-25.76 20.26-25.76L20.26-25.76Q23.27-25.76 25.31-24.62 27.34-23.49 28.56-21.59 29.79-19.7 30.32-17.36 30.86-15.01 30.86-12.6L30.86-12.6Q30.86-10.13 30.16-7.75 29.47-5.37 28.06-3.45 26.66-1.54 24.54-0.39 22.41 0.76 19.56 0.76L19.56 0.76Q17.24 0.76 15.43 0.16 13.62-0.44 12.6-1.04 11.57-1.64 11.57-1.66L11.57-1.66 11.57 4.25Q11.57 7.25 11.84 8.91 12.11 10.57 12.26 11.25ZM11.57-20.51L11.57-4.59Q12.96-3.81 14.64-3 16.31-2.2 18.16-2.2L18.16-2.2Q20.43-2.2 21.9-3.63 23.36-5.05 24.06-7.43 24.76-9.81 24.76-12.65L24.76-12.65Q24.76-17.38 23.67-20.12 22.58-22.85 19.46-22.85L19.46-22.85Q18.16-22.85 16.78-22.5 15.41-22.14 14.22-21.68 13.04-21.22 12.3-20.86 11.57-20.51 11.57-20.51L11.57-20.51ZM44.58-36.21L44.58-2.44 48.83-2.44 48.83-0.61Q48-0.15 46.09 0.15 44.19 0.44 42.43 0.44L42.43 0.44Q40.94 0.44 39.94 0.01 38.94-0.42 38.94-1.9L38.94-1.9 38.94-34.64 34.62-34.64 34.62-36.5Q35.3-36.82 36.68-37.04 38.06-37.26 39.63-37.38 41.21-37.5 42.48-37.5L42.48-37.5Q43.48-37.5 44.03-37.34 44.58-37.18 44.58-36.21L44.58-36.21ZM69.4-1.9L69.4-2.15Q69.4-2.17 68.71-1.73 68.01-1.29 66.83-0.71 65.64-0.12 64.2 0.32 62.76 0.76 61.25 0.76L61.25 0.76Q59.13 0.76 57.32-0.01 55.51-0.78 54.41-2.4 53.32-4.03 53.32-6.54L53.32-6.54Q53.32-9.35 54.94-11.04 56.56-12.72 59.42-13.46 62.28-14.21 65.96-14.21L65.96-14.21 69.4-14.21 69.4-16.04Q69.4-17.94 69.16-19.58 68.92-21.22 68.1-22.2 67.28-23.19 65.55-23.19L65.55-23.19Q63.91-23.19 62.24-22.44 60.57-21.68 59.05-20.61 57.54-19.53 56.32-18.55L56.32-18.55 54.32-21.24Q53.95-21.68 53.95-22.14L53.95-22.14Q53.95-22.95 54.95-23.61 55.95-24.27 57.51-24.76 59.08-25.24 60.82-25.5 62.57-25.76 64.06-25.76L64.06-25.76Q67.06-25.76 69.56-24.79 72.07-23.83 73.57-21.69 75.07-19.56 75.07-16.04L75.07-16.04 75.07-2.44 79.32-2.44 79.32-0.61Q78.49-0.15 76.58 0.15 74.68 0.44 72.9 0.44L72.9 0.44Q71.7 0.44 70.59 0.04 69.48-0.37 69.4-1.9L69.4-1.9ZM62.96-2.86L62.96-2.86Q63.81-2.86 64.91-3.08 66.01-3.3 67.04-3.6 68.06-3.91 68.73-4.13 69.4-4.35 69.4-4.35L69.4-4.35 69.4-11.21 65.3-11.21Q64.08-11.21 62.58-10.88 61.08-10.55 59.99-9.61 58.91-8.67 58.91-6.81L58.91-6.81Q58.91-5.08 59.96-3.97 61.01-2.86 62.96-2.86ZM101.21-3.39L101.99-1.71Q100.29-0.66 98.49 0.05 96.7 0.76 93.96 0.76L93.96 0.76Q90.4 0.76 88.32-1.37 86.25-3.49 86.25-7.25L86.25-7.25 86.25-22 81.19-22 81.19-23.1Q81.19-24.19 81.67-24.6 82.15-25 83.2-25L83.2-25 86.25-25 86.25-30.81Q86.25-32.15 87.05-32.63 87.86-33.11 89.1-33.11L89.1-33.11Q89.89-33.11 90.91-32.92 91.94-32.74 92.6-32.35L92.6-32.35Q92.45-31.67 92.18-29.98 91.91-28.3 91.91-25L91.91-25 100.41-25 100.41-23.95Q100.41-22.88 99.93-22.44 99.46-22 98.41-22L98.41-22 91.91-22 91.91-7.69Q91.91-2.15 95.96-2.15L95.96-2.15Q97.18-2.15 98.41-2.49 99.63-2.83 100.43-3.15 101.24-3.47 101.21-3.39L101.21-3.39ZM104.63-12.5L104.63-12.5Q104.63-16.38 106.28-19.37 107.92-22.36 111.01-24.06 114.1-25.76 118.42-25.76L118.42-25.76Q121.67-25.76 124-24.41 126.33-23.07 127.58-20.9 128.82-18.73 128.82-16.21L128.82-16.21Q128.82-15.06 128.53-13.92 128.24-12.77 127.42-12.01 126.6-11.25 124.97-11.25L124.97-11.25 110.37-11.25Q110.85-6.86 113.83-4.53 116.81-2.2 121.11-2.2L121.11-2.2Q124.11-2.2 127.36-3.25L127.36-3.25 128.16-1.61Q126.19-0.27 123.65 0.34 121.11 0.95 118.67 0.95L118.67 0.95Q115.98 0.95 113.47 0.11 110.95-0.73 108.96-2.42 106.97-4.1 105.8-6.62 104.63-9.13 104.63-12.5ZM110.32-14.26L122.96-14.26Q123.11-14.75 123.16-15.23 123.21-15.72 123.21-16.26L123.21-16.26Q123.21-17.87 122.51-19.43 121.82-21 120.46-22.02 119.11-23.05 117.13-23.05L117.13-23.05Q114.64-23.05 113.19-21.81 111.73-20.58 111.09-18.58 110.44-16.58 110.32-14.26L110.32-14.26ZM167.54-23.19L167.54-34.64 163.24-34.64 163.24-36.5Q163.93-36.82 165.29-37.04 166.66-37.26 168.25-37.38 169.83-37.5 171.1-37.5L171.1-37.5Q172.1-37.5 172.65-37.34 173.2-37.18 173.2-36.21L173.2-36.21 173.2-2.44 177.45-2.44 177.45-0.61Q176.62-0.15 174.72 0.15 172.81 0.44 171.05 0.44L171.05 0.44Q169.57 0.44 168.55 0.01 167.54-0.42 167.54-1.9L167.54-1.9 167.54-2.29Q167.22-2.08 166.13-1.33 165.05-0.59 163.35 0.09 161.65 0.76 159.48 0.76L159.48 0.76Q156.06 0.76 153.54-1.04 151.01-2.83 149.63-5.82 148.25-8.81 148.25-12.4L148.25-12.4Q148.25-16.38 149.46-19.38 150.67-22.39 153.12-24.07 155.58-25.76 159.29-25.76L159.29-25.76Q161.44-25.76 163.56-25.16 165.68-24.56 167.54-23.19L167.54-23.19ZM167.54-5.15L167.54-20.61Q166.07-21.39 164.46-22.07 162.85-22.75 160.48-22.75L160.48-22.75Q157.16-22.75 155.72-19.81 154.28-16.87 154.28-12.21L154.28-12.21Q154.28-7.5 155.99-4.87 157.7-2.25 160.8-2.25L160.8-2.25Q162.63-2.25 164.43-3.04 166.22-3.83 167.54-5.15L167.54-5.15ZM180.7-22.51L180.7-24.34Q181.38-24.66 182.75-24.88 184.11-25.1 185.7-25.22 187.29-25.34 188.56-25.34L188.56-25.34Q189.56-25.34 190.11-25.18 190.66-25.02 190.66-24.05L190.66-24.05 190.66-18.19 193.76-22.61Q195.95-25.76 199.59-25.76L199.59-25.76Q200.03-25.76 200.73-25.67 201.42-25.59 201.98-25.29 202.55-25 202.55-24.39L202.55-24.39Q202.55-24.15 202.5-24L202.5-24 201.45-20.56Q200.52-20.85 199.77-20.97 199.03-21.09 198.4-21.09L198.4-21.09Q197.08-21.09 195.88-20.36 194.68-19.63 193.68-18.58 192.68-17.53 191.91-16.52 191.14-15.5 190.66-14.94L190.66-14.94 190.66-7.35Q190.66-4.35 190.92-2.69 191.19-1.03 191.34-0.34L191.34-0.34Q190.68 0.02 189.66 0.23 188.63 0.44 187.85 0.44L187.85 0.44Q186.6 0.44 185.8-0.06 184.99-0.56 184.99-1.9L184.99-1.9 184.99-22.51 180.7-22.51ZM232.65-12.45L232.65-12.45Q232.65-8.47 230.85-5.51 229.06-2.54 226.03-0.89 223 0.76 219.27 0.76L219.27 0.76Q215.51 0.76 212.46-0.9 209.4-2.56 207.61-5.53 205.81-8.5 205.81-12.45L205.81-12.45Q205.81-16.46 207.61-19.45 209.4-22.44 212.46-24.1 215.51-25.76 219.27-25.76L219.27-25.76Q223.03-25.76 226.05-24.1 229.08-22.44 230.86-19.45 232.65-16.46 232.65-12.45ZM211.85-12.5L211.85-12.5Q211.85-9.74 212.46-7.3 213.07-4.86 214.68-3.36 216.29-1.86 219.27-1.86L219.27-1.86Q222.25-1.86 223.83-3.36 225.42-4.86 226.02-7.3 226.62-9.74 226.62-12.5L226.62-12.5Q226.62-15.28 226.02-17.71 225.42-20.14 223.83-21.64 222.25-23.14 219.27-23.14L219.27-23.14Q216.29-23.14 214.68-21.64 213.07-20.14 212.46-17.71 211.85-15.28 211.85-12.5ZM247.76 11.25L247.76 11.25Q247.1 11.62 246.07 11.84 245.05 12.06 244.26 12.06L244.26 12.06Q243.02 12.06 242.21 11.5 241.41 10.94 241.41 9.59L241.41 9.59 241.41-22.56 237.06-22.56 237.06-24.39Q237.75-24.71 239.13-24.93 240.5-25.15 242.1-25.27 243.7-25.39 244.97-25.39L244.97-25.39Q245.97-25.39 246.52-25.23 247.07-25.07 247.07-24.1L247.07-24.1 247.07-22.95Q248.51-24 250.83-24.88 253.15-25.76 255.76-25.76L255.76-25.76Q258.77-25.76 260.81-24.62 262.84-23.49 264.06-21.59 265.29-19.7 265.82-17.36 266.36-15.01 266.36-12.6L266.36-12.6Q266.36-10.13 265.66-7.75 264.97-5.37 263.56-3.45 262.16-1.54 260.04-0.39 257.91 0.76 255.06 0.76L255.06 0.76Q252.74 0.76 250.93 0.16 249.12-0.44 248.1-1.04 247.07-1.64 247.07-1.66L247.07-1.66 247.07 4.25Q247.07 7.25 247.34 8.91 247.61 10.57 247.76 11.25ZM247.07-20.51L247.07-4.59Q248.46-3.81 250.14-3 251.81-2.2 253.66-2.2L253.66-2.2Q255.93-2.2 257.4-3.63 258.86-5.05 259.56-7.43 260.26-9.81 260.26-12.65L260.26-12.65Q260.26-17.38 259.17-20.12 258.08-22.85 254.96-22.85L254.96-22.85Q253.66-22.85 252.28-22.5 250.91-22.14 249.72-21.68 248.54-21.22 247.8-20.86 247.07-20.51 247.07-20.51L247.07-20.51Z" opacity="1" transform="matrix(1,0,0,1,0,0)" fill="#293040" class="wordmark-text-0" data-fill-palette-color="quaternary" id="text-0"></path></svg></g></svg></g></svg></g></svg></g><g transform="matrix(1,0,0,1,67.38085507515247,0)"><svg viewBox="0 0 78.39673107685218 55.13114045589934" height="55.13114045589934" width="78.39673107685218"><g><svg xmlns="http://www.w3.org/2000/svg" xmlns:xlink="http://www.w3.org/1999/xlink" version="1.1" x="0" y="0" viewBox="10.625 21.399999618530273 78.779052734375 55.400001525878906" enable-background="new 0 0 100 100" xml:space="preserve" height="55.13114045589934" width="78.39673107685218" class="icon-icon-0" data-fill-palette-color="quaternary" id="icon-0"><g fill="#293040" data-fill-palette-color="quaternary"><path fill="#293040" d="M89.3 67.3C89.1 66.8 88.6 66.5 88.1 66.5H84.1V64.8C84.1 62.7 82.6 61.1 80.7 61.1H55.9C53.9 61.1 52.5 62.7 52.5 64.8V66.5H14.5C14 66.5 13.5 66.8 13.3 67.3S13.2 68.3 13.6 68.7C14.5 69.5 22.3 76.8 26.5 76.8H76.2C80.4 76.8 88.2 69.6 89.1 68.7 89.4 68.4 89.5 67.8 89.3 67.3M55 64.8C55 64.7 55 63.7 55.9 63.7H80.7C81.4 63.7 81.6 64.4 81.6 64.8V66.5H55zM76.1 74.2H26.4C24.6 74.2 20.8 71.6 17.8 69.1H84.7C81.7 71.6 77.9 74.2 76.1 74.2" data-fill-palette-color="quaternary"></path><path fill="#293040" d="M54.5 49.2L57.7 46.9 62.2 49.3C62.6 49.5 63.1 49.5 63.5 49.3L67.7 46.8 72.7 49.3C73.1 49.5 73.5 49.5 73.9 49.3L78.1 46.9 82.1 49.3C82.3 49.4 82.5 49.5 82.8 49.5 83.2 49.5 83.7 49.3 83.9 48.9 84.3 48.3 84.1 47.5 83.5 47.1L78.8 44.3C78.4 44.1 77.9 44.1 77.5 44.3L73.3 46.8 68.3 44.3C67.9 44.1 67.5 44.1 67.1 44.3L62.9 46.7 58.3 44.2C57.9 44 57.3 44 56.9 44.3L53.1 47.1C52.5 47.5 52.4 48.3 52.8 48.9 53.1 49.5 53.9 49.6 54.5 49.2" data-fill-palette-color="quaternary"></path><path fill="#293040" d="M55.6 58.6H80.9C82.9 58.6 84.6 56.9 84.6 54.9S82.9 51.2 80.9 51.2H55.6C53.6 51.2 51.9 52.9 51.9 54.9S53.6 58.6 55.6 58.6M55.6 53.7H80.9C81.5 53.7 82 54.2 82 54.8S81.5 56 80.9 56H55.6C55 56 54.5 55.5 54.5 54.9S55 53.7 55.6 53.7" data-fill-palette-color="quaternary"></path><path fill="#293040" d="M53.7 41.6H82.8C83.5 41.6 84.1 41 84.1 40.3 84.1 34.8 79.8 26 68.3 26S52.5 34.8 52.5 40.3C52.4 41 53 41.6 53.7 41.6M68.3 28.6C77.9 28.6 80.9 35.2 81.5 39H55.1C55.7 35.2 58.6 28.6 68.3 28.6" data-fill-palette-color="quaternary"></path><path fill="#293040" d="M31 45.6V54.4C31 55.1 31.6 55.7 32.3 55.7S33.6 55.1 33.6 54.4V45.6C37.8 45 47.2 41.4 47.2 29V22.7C47.2 22 46.6 21.4 45.9 21.4H18.6C17.9 21.4 17.3 22 17.3 22.7V29C17.3 41.4 26.7 45 31 45.6M32.3 43.2C29.8 43.2 20.7 41 20 30.3H44.6C43.9 40.9 34.8 43.2 32.3 43.2M44.6 23.9V27.7H19.9V23.9z" data-fill-palette-color="quaternary"></path><circle fill="#293040" cx="60.2" cy="35.6" r="1.2" data-fill-palette-color="quaternary"></circle><circle fill="#293040" cx="64" cy="32.6" r="1.2" data-fill-palette-color="quaternary"></circle><circle fill="#293040" cx="68.1" cy="35.6" r="1.2" data-fill-palette-color="quaternary"></circle><circle fill="#293040" cx="72" cy="32.6" r="1.2" data-fill-palette-color="quaternary"></circle><circle fill="#293040" cx="75.9" cy="35.6" r="1.2" data-fill-palette-color="quaternary"></circle><path fill="#293040" d="M17.5 64.5C17.8 64.5 18.1 64.4 18.4 64.2 18.9 63.7 19 62.9 18.5 62.4L13.7 57.2 15.1 55.7 21.9 63C22.4 63.5 23.2 63.6 23.7 63.1S24.3 61.8 23.8 61.3L16.1 53C15.9 52.7 15.5 52.6 15.2 52.6 14.8 52.6 14.5 52.7 14.3 53L11 56.2C10.5 56.7 10.5 57.5 11 58L16.6 64.1C16.8 64.3 17.2 64.5 17.5 64.5" data-fill-palette-color="quaternary"></path><path fill="#293040" d="M22 50.3C21.6 50.3 21.3 50.4 21 50.7L19.5 52.3C19 52.8 19 53.6 19.5 54.1S20.8 54.6 21.3 54.1L21.8 53.6 28 61.5C28.3 61.8 28.6 62 29 62 29.3 62 29.6 61.9 29.8 61.7 30.4 61.3 30.5 60.5 30 59.9L22.9 50.9C22.8 50.5 22.4 50.3 22 50.3" data-fill-palette-color="quaternary"></path><path fill="#293040" d="M46.7 56.3C46.4 56.1 46.1 56.1 45.7 56.1L35.1 58.7C34.4 58.9 34 59.6 34.2 60.3S35.1 61.4 35.8 61.2L45.1 58.9 45.5 60.7C43.8 61.1 41.9 61.7 41.7 61.8 41 62 40.7 62.8 40.9 63.4 41.1 63.9 41.6 64.3 42.1 64.3 42.2 64.3 42.4 64.3 42.5 64.2 42.8 64.1 45.6 63.3 47.3 62.9 48 62.7 48.4 62.1 48.2 61.4L47.3 57.1C47.2 56.8 46.9 56.5 46.7 56.3" data-fill-palette-color="quaternary"></path></g></svg></g></svg></g><g></g></svg></g></svg></g></svg></g><defs></defs></svg><rect width="342.85155851775386" height="342.85155851775386" fill="none" stroke="none" visibility="hidden"></rect></g></svg></g></g></g></g></svg>